<svg width="12" height="19" viewBox="0 0 12 19" fill="none" xmlns="http://www.w3.org/2000/svg">
<path d="M1.66667 18.3333C1.20833 18.3333 0.815835 18.17 0.489168 17.8433C0.162501 17.5167 -0.000554141 17.1244 1.41483e-06 16.6667V1.66667C1.41483e-06 1.20833 0.163335 0.815835 0.490001 0.489168C0.816668 0.162501 1.20889 -0.000554141 1.66667 1.41483e-06H10C10.4583 1.41483e-06 10.8508 0.163335 11.1775 0.490001C11.5042 0.816668 11.6672 1.20889 11.6667 1.66667V16.6667C11.6667 17.125 11.5033 17.5175 11.1767 17.8442C10.85 18.1708 10.4578 18.3339 10 18.3333H1.66667ZM5.83333 16.25C6.06945 16.25 6.2675 16.17 6.4275 16.01C6.5875 15.85 6.66722 15.6522 6.66667 15.4167C6.66667 15.1806 6.58667 14.9825 6.42667 14.8225C6.26667 14.6625 6.06889 14.5828 5.83333 14.5833C5.59722 14.5833 5.39917 14.6633 5.23917 14.8233C5.07917 14.9833 4.99945 15.1811 5 15.4167C5 15.6528 5.08 15.8508 5.24 16.0108C5.4 16.1708 5.59778 16.2506 5.83333 16.25ZM1.66667 12.5H10V4.16667H1.66667V12.5Z" fill="#002D6A"/>
</svg>
