<svg width="18" height="18" viewBox="0 0 18 18" fill="none" xmlns="http://www.w3.org/2000/svg">
<path d="M8.75 6.66641C8.33794 6.66656 7.93517 6.78889 7.59263 7.01793C7.25009 7.24698 6.98315 7.57244 6.82557 7.95318C6.66798 8.33392 6.62683 8.75284 6.70732 9.15697C6.7878 9.56109 6.98631 9.93228 7.27773 10.2236C7.56916 10.5149 7.94042 10.7133 8.34458 10.7936C8.74874 10.8739 9.16764 10.8326 9.54832 10.6749C9.929 10.5172 10.2544 10.2501 10.4833 9.9075C10.7122 9.56487 10.8344 9.16206 10.8344 8.75C10.834 8.19739 10.6142 7.66754 10.2234 7.27686C9.83254 6.88618 9.30261 6.66661 8.75 6.66641ZM13.6215 5.06484C13.5154 4.79603 13.3552 4.55188 13.1509 4.34754C12.9466 4.1432 12.7024 3.98302 12.4336 3.87695C11.6133 3.55312 9.66016 3.62578 8.75 3.62578C7.83984 3.62578 5.88867 3.55039 5.06602 3.87695C4.7972 3.98302 4.55305 4.1432 4.34871 4.34754C4.14437 4.55188 3.9842 4.79603 3.87812 5.06484C3.55469 5.88516 3.62695 7.84023 3.62695 8.74961C3.62695 9.65898 3.55469 11.6117 3.87969 12.4348C3.98576 12.7036 4.14593 12.9477 4.35028 13.1521C4.55462 13.3564 4.79877 13.5166 5.06758 13.6227C5.88789 13.9465 7.84102 13.8738 8.75156 13.8738C9.66211 13.8738 11.6125 13.9492 12.4352 13.6227C12.704 13.5166 12.9481 13.3564 13.1525 13.1521C13.3568 12.9477 13.517 12.7036 13.623 12.4348C13.9492 11.6145 13.8742 9.65938 13.8742 8.75C13.8742 7.84062 13.9492 5.88828 13.623 5.06523L13.6215 5.06484ZM8.75 11.9531C8.11648 11.9531 7.49719 11.7653 6.97044 11.4133C6.44369 11.0613 6.03314 10.5611 5.7907 9.97578C5.54826 9.39049 5.48483 8.74645 5.60842 8.1251C5.73202 7.50376 6.03708 6.93301 6.48505 6.48505C6.93301 6.03708 7.50376 5.73202 8.1251 5.60842C8.74645 5.48483 9.39049 5.54826 9.97578 5.7907C10.5611 6.03314 11.0613 6.44369 11.4133 6.97044C11.7653 7.49719 11.9531 8.11648 11.9531 8.75C11.9536 9.17078 11.8711 9.58754 11.7103 9.97639C11.5496 10.3652 11.3136 10.7186 11.0161 11.0161C10.7186 11.3136 10.3652 11.5496 9.97639 11.7103C9.58754 11.8711 9.17078 11.9536 8.75 11.9531ZM12.0852 6.16016C11.9373 6.16023 11.7927 6.11645 11.6697 6.03434C11.5467 5.95224 11.4508 5.8355 11.3941 5.69889C11.3375 5.56228 11.3226 5.41194 11.3514 5.26688C11.3802 5.12182 11.4514 4.98857 11.556 4.88397C11.6605 4.77936 11.7937 4.70812 11.9388 4.67924C12.0838 4.65036 12.2342 4.66514 12.3708 4.72172C12.5074 4.7783 12.6242 4.87412 12.7064 4.99708C12.7886 5.12004 12.8324 5.26461 12.8324 5.4125C12.8328 5.51071 12.8139 5.60803 12.7766 5.69889C12.7393 5.78974 12.6844 5.87234 12.6151 5.94195C12.5459 6.01156 12.4635 6.0668 12.3728 6.10452C12.2822 6.14223 12.1849 6.16167 12.0867 6.16172L12.0852 6.16016ZM15.625 0H1.875C1.37772 0 0.900806 0.197544 0.549175 0.549175C0.197544 0.900806 0 1.37772 0 1.875L0 15.625C0 16.1223 0.197544 16.5992 0.549175 16.9508C0.900806 17.3025 1.37772 17.5 1.875 17.5H15.625C16.1223 17.5 16.5992 17.3025 16.9508 16.9508C17.3025 16.5992 17.5 16.1223 17.5 15.625V1.875C17.5 1.37772 17.3025 0.900806 16.9508 0.549175C16.5992 0.197544 16.1223 0 15.625 0ZM14.9563 11.3281C14.9059 12.3293 14.6773 13.2164 13.9465 13.9453C13.2156 14.6742 12.3293 14.9074 11.3293 14.9551C10.2977 15.0133 7.20469 15.0133 6.17305 14.9551C5.17188 14.9047 4.28789 14.6758 3.55586 13.9453C2.82383 13.2148 2.59375 12.3273 2.54609 11.3281C2.48789 10.2961 2.48789 7.20273 2.54609 6.17188C2.59648 5.1707 2.82227 4.28359 3.55586 3.55469C4.28945 2.82578 5.17578 2.59531 6.17305 2.54766C7.20469 2.48945 10.2977 2.48945 11.3293 2.54766C12.3305 2.59805 13.2172 2.82695 13.9465 3.55742C14.6758 4.28789 14.9086 5.17539 14.9563 6.17656C15.0145 7.20469 15.0145 10.2953 14.9563 11.3281Z" fill="#002D6A"/>
</svg>
