<svg width="18" height="18" viewBox="0 0 18 18" fill="none" xmlns="http://www.w3.org/2000/svg">
<path d="M8.75 3.54688C5.91016 3.54688 3.60156 5.85547 3.59766 8.69531C3.59766 9.66797 3.87109 10.6172 4.38672 11.4336L4.50781 11.6289L3.98828 13.5273L5.9375 13.0156L6.125 13.1289C6.91406 13.5977 7.82031 13.8477 8.74609 13.8477H8.75C11.5859 13.8477 13.957 11.5391 13.957 8.69922C13.957 7.32422 13.3633 6.03125 12.3906 5.05859C11.4141 4.08203 10.125 3.54688 8.75 3.54688ZM11.7773 10.9063C11.6484 11.2695 11.0312 11.5977 10.7344 11.6406C10.2422 11.7148 9.85938 11.6758 8.87891 11.2539C7.32813 10.582 6.3125 9.01953 6.23438 8.91797C6.15625 8.81641 5.60156 8.07813 5.60156 7.31641C5.60156 6.55469 6 6.17969 6.14453 6.02344C6.28516 5.86719 6.45312 5.82812 6.55859 5.82812C6.66016 5.82812 6.76563 5.82813 6.85547 5.83203C6.94922 5.83594 7.07812 5.79688 7.20312 6.09766C7.33203 6.40625 7.64063 7.16797 7.67969 7.24609C7.71875 7.32422 7.74609 7.41406 7.69141 7.51562C7.39453 8.10937 7.07813 8.08594 7.23828 8.35938C7.83594 9.38672 8.43359 9.74219 9.34375 10.1992C9.5 10.2773 9.58984 10.2656 9.67969 10.1602C9.76953 10.0586 10.0664 9.70703 10.168 9.55469C10.2695 9.39844 10.375 9.42578 10.5156 9.47656C10.6563 9.52734 11.418 9.90234 11.5742 9.98047C11.7305 10.0586 11.832 10.0977 11.8711 10.1602C11.9062 10.2344 11.9062 10.5469 11.7773 10.9063ZM15.625 0H1.875C0.839844 0 0 0.839844 0 1.875V15.625C0 16.6602 0.839844 17.5 1.875 17.5H15.625C16.6602 17.5 17.5 16.6602 17.5 15.625V1.875C17.5 0.839844 16.6602 0 15.625 0ZM8.74609 14.8906C7.70703 14.8906 6.6875 14.6289 5.78516 14.1367L2.5 15L3.37891 11.7891C2.83594 10.8516 2.55078 9.78516 2.55078 8.69141C2.55469 5.27734 5.33203 2.5 8.74609 2.5C10.4023 2.5 11.957 3.14453 13.1289 4.31641C14.2969 5.48828 15 7.04297 15 8.69922C15 12.1133 12.1602 14.8906 8.74609 14.8906Z" fill="#002D6A"/>
</svg>
