<svg width="12" height="17" viewBox="0 0 12 17" fill="none" xmlns="http://www.w3.org/2000/svg">
<path d="M5.83333 7.91667C5.2808 7.91667 4.7509 7.69717 4.36019 7.30647C3.96949 6.91577 3.75 6.38587 3.75 5.83333C3.75 5.2808 3.96949 4.7509 4.36019 4.36019C4.7509 3.96949 5.2808 3.75 5.83333 3.75C6.38587 3.75 6.91577 3.96949 7.30647 4.36019C7.69717 4.7509 7.91667 5.2808 7.91667 5.83333C7.91667 6.10692 7.86278 6.37783 7.75808 6.63059C7.65339 6.88335 7.49993 7.11302 7.30647 7.30647C7.11302 7.49993 6.88335 7.65339 6.63059 7.75808C6.37783 7.86278 6.10692 7.91667 5.83333 7.91667ZM5.83333 0C4.28624 0 2.80251 0.614581 1.70854 1.70854C0.614581 2.80251 0 4.28624 0 5.83333C0 10.2083 5.83333 16.6667 5.83333 16.6667C5.83333 16.6667 11.6667 10.2083 11.6667 5.83333C11.6667 4.28624 11.0521 2.80251 9.95812 1.70854C8.86416 0.614581 7.38043 0 5.83333 0Z" fill="#002D6A"/>
</svg>
