<svg width="17" height="14" viewBox="0 0 17 14" fill="none" xmlns="http://www.w3.org/2000/svg">
<path d="M1.66667 13.3333C1.20833 13.3333 0.815835 13.17 0.489168 12.8433C0.162501 12.5167 -0.000554141 12.1244 1.41483e-06 11.6667V1.66667C1.41483e-06 1.20833 0.163335 0.815835 0.490001 0.489168C0.816668 0.162501 1.20889 -0.000554141 1.66667 1.41483e-06H15C15.4583 1.41483e-06 15.8508 0.163335 16.1775 0.490001C16.5042 0.816668 16.6672 1.20889 16.6667 1.66667V11.6667C16.6667 12.125 16.5033 12.5175 16.1767 12.8442C15.85 13.1708 15.4578 13.3339 15 13.3333H1.66667ZM8.33333 7.35417C8.40278 7.35417 8.47583 7.34361 8.5525 7.3225C8.62917 7.30139 8.70195 7.27028 8.77083 7.22917L14.6667 3.54167C14.7778 3.47222 14.8611 3.38528 14.9167 3.28083C14.9722 3.17639 15 3.06195 15 2.9375C15 2.65972 14.8819 2.45139 14.6458 2.3125C14.4097 2.17361 14.1667 2.18056 13.9167 2.33333L8.33333 5.83333L2.75 2.33333C2.5 2.18056 2.25695 2.17722 2.02083 2.32333C1.78472 2.46945 1.66667 2.67417 1.66667 2.9375C1.66667 3.07639 1.69445 3.19806 1.75 3.3025C1.80556 3.40695 1.88889 3.48667 2 3.54167L7.89583 7.22917C7.96528 7.27083 8.03833 7.30222 8.115 7.32333C8.19167 7.34445 8.26445 7.35472 8.33333 7.35417Z" fill="#002D6A"/>
</svg>
