<svg width="17" height="17" viewBox="0 0 17 17" fill="none" xmlns="http://www.w3.org/2000/svg">
<path d="M15.75 0H0.916667C0.673551 0 0.440394 0.0965772 0.268486 0.268486C0.0965772 0.440394 0 0.673551 0 0.916667V15.75C0 15.9931 0.0965772 16.2263 0.268486 16.3982C0.440394 16.5701 0.673551 16.6667 0.916667 16.6667H8.9V10.2083H6.73333V7.70833H8.9V5.83333C8.85512 5.39313 8.90709 4.94844 9.05226 4.53045C9.19744 4.11246 9.4323 3.73129 9.74039 3.41368C10.0485 3.09606 10.4223 2.8497 10.8357 2.69186C11.2491 2.53403 11.692 2.46854 12.1333 2.5C12.7819 2.49601 13.4302 2.5294 14.075 2.6V4.85H12.75C11.7 4.85 11.5 5.35 11.5 6.075V7.68333H14L13.675 10.1833H11.5V16.6667H15.75C15.8704 16.6667 15.9896 16.643 16.1008 16.5969C16.212 16.5508 16.3131 16.4833 16.3982 16.3982C16.4833 16.3131 16.5508 16.212 16.5969 16.1008C16.643 15.9896 16.6667 15.8704 16.6667 15.75V0.916667C16.6667 0.796288 16.643 0.677089 16.5969 0.565874C16.5508 0.454658 16.4833 0.353606 16.3982 0.268486C16.3131 0.183365 16.212 0.115844 16.1008 0.0697772C15.9896 0.0237104 15.8704 0 15.75 0Z" fill="#002D6A"/>
</svg>
