<svg width="1725" height="618" viewBox="0 0 1725 618" fill="none" xmlns="http://www.w3.org/2000/svg">
<path d="M159.744 64.5327C519.169 15.3938 590.1 185.298 1279.15 8.58916C1422.13 -28.0807 1685.66 64.5327 1685.66 64.5327V713.922C1685.66 713.922 1362.79 715.689 1172.45 768.574C754.017 884.831 159.744 704.229 159.744 704.229C159.744 704.229 -199.68 113.672 159.744 64.5327Z" fill="#FDCC00"/>
<path d="M199.084 79.2422C558.508 30.1033 683.682 167.799 1318.49 23.2987C1462.79 -9.54863 1725 79.2422 1725 79.2422V728.632C1725 728.632 1402.13 730.399 1211.79 783.283C793.357 899.541 199.084 718.939 199.084 718.939C199.084 718.939 -160.34 128.381 199.084 79.2422Z" fill="#002D6A"/>
</svg>
